<?xml version="1.0" encoding="iso-8859-1"?>
<!-- Uploaded to: SVG Repo, www.svgrepo.com, Generator: SVG Repo Mixer Tools -->
<svg fill="#000000" height="800px" width="800px" version="1.1" id="Layer_1" xmlns="http://www.w3.org/2000/svg" xmlns:xlink="http://www.w3.org/1999/xlink" 
	 viewBox="0 0 330 330" xml:space="preserve">
<path id="XMLID_197_" d="M323.954,32.978c-3.805-2.832-8.724-3.696-13.265-2.333L217.037,58.74L172.75,32.164
	c-0.011-0.007-0.02-0.015-0.031-0.021l-50-30.009c-0.07-0.043-0.144-0.078-0.215-0.119c-0.023-0.014-0.049-0.026-0.072-0.041
	c-0.995-0.567-2.038-1.013-3.11-1.335c-0.019-0.006-0.038-0.013-0.059-0.019c-0.523-0.155-1.053-0.278-1.586-0.375
	c-0.051-0.01-0.101-0.018-0.151-0.027c-0.528-0.09-1.06-0.152-1.593-0.186c-0.045-0.003-0.09-0.004-0.135-0.006
	c-1.122-0.06-2.247,0.004-3.358,0.196c-0.015,0.003-0.029,0.004-0.043,0.007c-0.548,0.096-1.09,0.228-1.627,0.386
	c-0.026,0.007-0.053,0.011-0.079,0.019l-100,29.994C4.346,32.53,0,38.371,0,44.995v80v80v80c0,4.741,2.242,9.204,6.046,12.034
	c2.619,1.949,5.767,2.966,8.955,2.966c1.443,0,2.894-0.208,4.309-0.633l93.653-28.096l94.318,56.591
	c0.197,0.118,0.399,0.224,0.601,0.333c0.087,0.047,0.172,0.099,0.26,0.144c0.333,0.171,0.671,0.329,1.012,0.474
	c0.082,0.035,0.166,0.063,0.248,0.096c0.265,0.107,0.531,0.209,0.8,0.3c0.123,0.041,0.247,0.077,0.37,0.115
	c0.234,0.072,0.47,0.141,0.707,0.201c0.133,0.034,0.268,0.065,0.401,0.097c0.234,0.053,0.47,0.1,0.705,0.142
	c0.133,0.023,0.266,0.047,0.398,0.067c0.253,0.037,0.507,0.066,0.761,0.091c0.116,0.012,0.23,0.026,0.347,0.035
	c0.369,0.027,0.739,0.044,1.108,0.044l0,0c0.001,0,0.001,0,0.001,0c0.003,0,0.005,0,0.007,0c0.339,0,0.677-0.014,1.015-0.037
	c0.114-0.008,0.227-0.023,0.342-0.032c0.227-0.021,0.454-0.044,0.681-0.074c0.133-0.018,0.264-0.042,0.396-0.063
	c0.209-0.035,0.419-0.072,0.627-0.115c0.135-0.028,0.268-0.059,0.402-0.092c0.208-0.049,0.415-0.103,0.621-0.162
	c0.072-0.021,0.146-0.035,0.219-0.057l100-30c6.345-1.903,10.69-7.743,10.69-14.367v-80v-80V45.012
	C330,40.271,327.758,35.808,323.954,32.978z M30,136.155l70-21v48.68l-70,21V136.155z M130,121.488l70,42v45.014l-70-42V121.488z
	 M230,166.155l70-21v48.68l-70,21V166.155z M300,113.835l-70,21V86.172l70-21V113.835z M200,128.502l-70-42V41.495l70,42.009
	V128.502z M100,35.16v48.675l-70,21V56.156L100,35.16z M30,216.155l70-21v48.68l-70,21V216.155z M130,201.488l70,42v45.014l-70-42
	V201.488z M230,294.835v-48.68l70-21v48.68L230,294.835z"/>
</svg>